<mxfile host="65bd71144e">
    <diagram id="HiB9zwLDyIQSGDIZeXoi" name="Page-1">
        <mxGraphModel dx="895" dy="1609" grid="0" gridSize="10" guides="1" tooltips="1" connect="1" arrows="1" fold="1" page="1" pageScale="1" pageWidth="850" pageHeight="1100" math="0" shadow="0">
            <root>
                <mxCell id="0"/>
                <mxCell id="1" parent="0"/>
                <mxCell id="4" value="" style="rounded=0;whiteSpace=wrap;html=1;" vertex="1" parent="1">
                    <mxGeometry x="18" y="-243" width="545" height="648" as="geometry"/>
                </mxCell>
                <mxCell id="5" value="" style="rounded=0;whiteSpace=wrap;html=1;" vertex="1" parent="1">
                    <mxGeometry x="837.2" y="-250" width="417" height="651" as="geometry"/>
                </mxCell>
                <mxCell id="6" value="&lt;b&gt;&lt;font style=&quot;font-size: 15px;&quot;&gt;ASP.NET Core Web API&lt;/font&gt;&lt;/b&gt;" style="outlineConnect=0;dashed=0;verticalLabelPosition=bottom;verticalAlign=top;align=center;html=1;shape=mxgraph.aws3.android;fillColor=#115193;gradientColor=none;" vertex="1" parent="1">
                    <mxGeometry x="220" y="-231" width="73.5" height="84" as="geometry"/>
                </mxCell>
                <mxCell id="7" value="DB" style="strokeWidth=2;html=1;shape=mxgraph.flowchart.database;whiteSpace=wrap;fillColor=#fff2cc;strokeColor=#d6b656;" vertex="1" parent="1">
                    <mxGeometry x="31" y="52" width="60" height="60" as="geometry"/>
                </mxCell>
                <mxCell id="8" value="&lt;b&gt;&lt;font style=&quot;font-size: 14px;&quot;&gt;Auth Endpoint&lt;/font&gt;&lt;/b&gt;" style="rounded=0;whiteSpace=wrap;html=1;fillColor=#dae8fc;strokeColor=#6c8ebf;" vertex="1" parent="1">
                    <mxGeometry x="274" y="-85" width="176" height="68" as="geometry"/>
                </mxCell>
                <mxCell id="9" value="&lt;b&gt;&lt;font style=&quot;font-size: 14px;&quot;&gt;Refresh Token Endpoint&lt;/font&gt;&lt;/b&gt;" style="rounded=0;whiteSpace=wrap;html=1;fillColor=#dae8fc;strokeColor=#6c8ebf;" vertex="1" parent="1">
                    <mxGeometry x="274" y="135" width="176" height="68" as="geometry"/>
                </mxCell>
                <mxCell id="10" value="&lt;b&gt;&lt;font style=&quot;font-size: 14px;&quot;&gt;Resource Endpoint&lt;/font&gt;&lt;/b&gt;" style="rounded=0;whiteSpace=wrap;html=1;fillColor=#dae8fc;strokeColor=#6c8ebf;" vertex="1" parent="1">
                    <mxGeometry x="274" y="282" width="176" height="68" as="geometry"/>
                </mxCell>
                <mxCell id="12" value="2. Check User in DB" style="endArrow=classic;startArrow=classic;html=1;exitX=0.546;exitY=0.125;exitDx=0;exitDy=0;exitPerimeter=0;" edge="1" parent="1" source="7">
                    <mxGeometry width="50" height="50" relative="1" as="geometry">
                        <mxPoint x="224" y="-4" as="sourcePoint"/>
                        <mxPoint x="274" y="-54" as="targetPoint"/>
                    </mxGeometry>
                </mxCell>
                <mxCell id="13" value="3. Store refresh token" style="edgeStyle=none;html=1;entryX=1;entryY=0.5;entryDx=0;entryDy=0;entryPerimeter=0;" edge="1" parent="1" source="8" target="7">
                    <mxGeometry relative="1" as="geometry"/>
                </mxCell>
                <mxCell id="14" value="8. Verify &amp;amp; store refresh token" style="edgeStyle=none;html=1;entryX=0.5;entryY=1;entryDx=0;entryDy=0;entryPerimeter=0;" edge="1" parent="1" source="9" target="7">
                    <mxGeometry relative="1" as="geometry"/>
                </mxCell>
                <mxCell id="15" value="&lt;b&gt;&lt;font style=&quot;font-size: 15px;&quot;&gt;Blazor&lt;/font&gt;&lt;/b&gt;" style="points=[];aspect=fixed;html=1;align=center;shadow=0;dashed=0;shape=mxgraph.alibaba_cloud.dlf_data_lake_formation;fillColor=#ffe6cc;strokeColor=#d79b00;" vertex="1" parent="1">
                    <mxGeometry x="1019" y="-221" width="73.54" height="69" as="geometry"/>
                </mxCell>
                <mxCell id="16" value="&lt;b&gt;&lt;font style=&quot;font-size: 14px;&quot;&gt;Blazor Server&lt;/font&gt;&lt;/b&gt;" style="rounded=0;whiteSpace=wrap;html=1;fillColor=#d5e8d4;strokeColor=#82b366;" vertex="1" parent="1">
                    <mxGeometry x="973" y="-77" width="204" height="60" as="geometry"/>
                </mxCell>
                <mxCell id="17" value="1. Login (email, password)" style="endArrow=classic;html=1;entryX=0.798;entryY=0.278;entryDx=0;entryDy=0;entryPerimeter=0;exitX=0.321;exitY=0.293;exitDx=0;exitDy=0;exitPerimeter=0;" edge="1" parent="1" source="5" target="4">
                    <mxGeometry width="50" height="50" relative="1" as="geometry">
                        <mxPoint x="774" y="-33" as="sourcePoint"/>
                        <mxPoint x="824" y="-83" as="targetPoint"/>
                    </mxGeometry>
                </mxCell>
                <mxCell id="18" value="4. Retun JWT &amp;amp; refresh token" style="endArrow=classic;html=1;entryX=0.798;entryY=0.278;entryDx=0;entryDy=0;entryPerimeter=0;exitX=0.321;exitY=0.293;exitDx=0;exitDy=0;exitPerimeter=0;" edge="1" parent="1">
                    <mxGeometry width="50" height="50" relative="1" as="geometry">
                        <mxPoint x="455" y="-36" as="sourcePoint"/>
                        <mxPoint x="973" y="-32" as="targetPoint"/>
                    </mxGeometry>
                </mxCell>
                <mxCell id="19" value="9. Return new JWT &amp;amp; refresh token" style="endArrow=none;html=1;exitX=1;exitY=0.25;exitDx=0;exitDy=0;entryX=0.374;entryY=0.613;entryDx=0;entryDy=0;entryPerimeter=0;" edge="1" parent="1" source="9" target="5">
                    <mxGeometry width="50" height="50" relative="1" as="geometry">
                        <mxPoint x="774" y="167" as="sourcePoint"/>
                        <mxPoint x="824" y="117" as="targetPoint"/>
                    </mxGeometry>
                </mxCell>
                <mxCell id="20" value="6. return result or invalid token if JWT Expire&amp;nbsp;" style="endArrow=none;html=1;exitX=1;exitY=0.25;exitDx=0;exitDy=0;" edge="1" parent="1">
                    <mxGeometry width="50" height="50" relative="1" as="geometry">
                        <mxPoint x="450" y="302" as="sourcePoint"/>
                        <mxPoint x="1076" y="302" as="targetPoint"/>
                        <Array as="points">
                            <mxPoint x="722" y="302"/>
                        </Array>
                    </mxGeometry>
                </mxCell>
                <mxCell id="21" value="" style="endArrow=classic;html=1;entryX=0.374;entryY=0.363;entryDx=0;entryDy=0;entryPerimeter=0;" edge="1" parent="1" target="5">
                    <mxGeometry width="50" height="50" relative="1" as="geometry">
                        <mxPoint x="991" y="148" as="sourcePoint"/>
                        <mxPoint x="824" y="117" as="targetPoint"/>
                        <Array as="points"/>
                    </mxGeometry>
                </mxCell>
                <mxCell id="22" value="7. call refresh token endpoint" style="endArrow=classic;html=1;entryX=0.949;entryY=0.824;entryDx=0;entryDy=0;entryPerimeter=0;exitX=0.446;exitY=0.673;exitDx=0;exitDy=0;exitPerimeter=0;" edge="1" parent="1">
                    <mxGeometry width="50" height="50" relative="1" as="geometry">
                        <mxPoint x="1032.162" y="188.12300000000005" as="sourcePoint"/>
                        <mxPoint x="450.0039999999999" y="191.03199999999993" as="targetPoint"/>
                    </mxGeometry>
                </mxCell>
                <mxCell id="23" value="7. Access resource and bring JWT" style="endArrow=classic;html=1;entryX=0.949;entryY=0.824;entryDx=0;entryDy=0;entryPerimeter=0;" edge="1" parent="1">
                    <mxGeometry width="50" height="50" relative="1" as="geometry">
                        <mxPoint x="1126" y="334" as="sourcePoint"/>
                        <mxPoint x="450.0039999999999" y="337.0319999999999" as="targetPoint"/>
                        <Array as="points"/>
                    </mxGeometry>
                </mxCell>
                <mxCell id="24" value="" style="endArrow=classic;html=1;entryX=0.635;entryY=0.363;entryDx=0;entryDy=0;entryPerimeter=0;" edge="1" parent="1">
                    <mxGeometry width="50" height="50" relative="1" as="geometry">
                        <mxPoint x="1078" y="300.69" as="sourcePoint"/>
                        <mxPoint x="1079.9950000000001" y="-16.996999999999897" as="targetPoint"/>
                        <Array as="points"/>
                    </mxGeometry>
                </mxCell>
                <mxCell id="26" value="" style="endArrow=none;html=1;" edge="1" parent="1">
                    <mxGeometry width="50" height="50" relative="1" as="geometry">
                        <mxPoint x="1031" y="190" as="sourcePoint"/>
                        <mxPoint x="1035" y="-17" as="targetPoint"/>
                    </mxGeometry>
                </mxCell>
                <mxCell id="27" value="" style="endArrow=none;html=1;entryX=0.688;entryY=0.361;entryDx=0;entryDy=0;entryPerimeter=0;" edge="1" parent="1" target="5">
                    <mxGeometry width="50" height="50" relative="1" as="geometry">
                        <mxPoint x="1124" y="334" as="sourcePoint"/>
                        <mxPoint x="1128" y="127" as="targetPoint"/>
                        <Array as="points"/>
                    </mxGeometry>
                </mxCell>
            </root>
        </mxGraphModel>
    </diagram>
</mxfile>